<svg width="81" height="18" viewBox="0 0 81 18" fill="none" xmlns="http://www.w3.org/2000/svg">
  <path d="M9.07184 18C6.21638 18 3.99054 17.2932 2.39433 15.8797C0.798109 14.4662 0 12.484 0 9.93321V0.550377H6.27846V9.76261C6.27846 11.0624 6.53562 11.9885 7.04996 12.5409C7.5643 13.0771 8.25599 13.3451 9.12504 13.3451C10.0118 13.3451 10.7035 13.0771 11.2001 12.5409C11.7145 11.9885 11.9716 11.0624 11.9716 9.76261V0.550377H18.1437V9.93321C18.1437 12.484 17.3456 14.4662 15.7493 15.8797C14.1531 17.2932 11.9273 18 9.07184 18Z" fill="black" />
  <path d="M21.0216 17.6101V0.550377H26.1827L35.6536 10.9324H33.2593V0.550377H39.3781V17.6101H34.217L24.7462 7.22803H27.1405V17.6101H21.0216Z" fill="black" />
  <path d="M42.4033 17.6101V0.550377H48.6817V17.6101H42.4033Z" fill="black" />
  <path d="M61.3347 18C59.8449 18 58.4615 17.7888 57.1845 17.3664C55.9253 16.9277 54.8256 16.3103 53.8856 15.5142C52.9634 14.718 52.2451 13.7757 51.7307 12.6871C51.2164 11.5986 50.9592 10.3963 50.9592 9.08022C50.9592 7.76419 51.2164 6.56189 51.7307 5.47332C52.2451 4.38475 52.9634 3.4424 53.8856 2.64628C54.8256 1.85016 55.9253 1.24089 57.1845 0.818459C58.4615 0.379781 59.8449 0.160442 61.3347 0.160442C63.1614 0.160442 64.7754 0.452894 66.1765 1.0378C67.5954 1.6227 68.7659 2.46756 69.6882 3.57238L65.7243 6.81372C65.1744 6.18008 64.5626 5.69265 63.8886 5.35146C63.2324 4.99402 62.4875 4.8153 61.6539 4.8153C60.9977 4.8153 60.4035 4.91278 59.8715 5.10775C59.3394 5.30272 58.8783 5.58705 58.4881 5.96074C58.1156 6.33442 57.823 6.78935 57.6101 7.32551C57.3973 7.84543 57.2909 8.43033 57.2909 9.08022C57.2909 9.73011 57.3973 10.3231 57.6101 10.8593C57.823 11.3792 58.1156 11.826 58.4881 12.1997C58.8783 12.5734 59.3394 12.8577 59.8715 13.0527C60.4035 13.2477 60.9977 13.3451 61.6539 13.3451C62.4875 13.3451 63.2324 13.1745 63.8886 12.8334C64.5626 12.4759 65.1744 11.9804 65.7243 11.3467L69.6882 14.5881C68.7659 15.6766 67.5954 16.5215 66.1765 17.1226C64.7754 17.7075 63.1614 18 61.3347 18Z" fill="black" />
  <path d="M75.7458 8.91978C74.992 8.91978 74.2915 8.81011 73.6441 8.59077C73.0056 8.37143 72.4514 8.06273 71.9814 7.66467C71.5114 7.25849 71.1434 6.78326 70.8773 6.23897C70.6201 5.69469 70.4916 5.10166 70.4916 4.45989C70.4916 3.81 70.6201 3.21697 70.8773 2.68081C71.1434 2.13652 71.5114 1.66535 71.9814 1.26729C72.4514 0.861108 73.0056 0.548347 73.6441 0.329008C74.2915 0.109669 74.992 0 75.7458 0C76.5084 0 77.209 0.109669 77.8475 0.329008C78.486 0.548347 79.0402 0.861108 79.5102 1.26729C79.9802 1.66535 80.3438 2.13652 80.601 2.68081C80.867 3.21697 81 3.81 81 4.45989C81 5.10166 80.867 5.69469 80.601 6.23897C80.3438 6.78326 79.9802 7.25849 79.5102 7.66467C79.0402 8.06273 78.486 8.37143 77.8475 8.59077C77.209 8.81011 76.5084 8.91978 75.7458 8.91978ZM75.7458 6.59235C76.0384 6.59235 76.3089 6.54361 76.5572 6.44613C76.8144 6.34864 77.0361 6.21054 77.2223 6.03182C77.4174 5.84497 77.5681 5.62157 77.6745 5.36162C77.781 5.09353 77.8342 4.79296 77.8342 4.45989C77.8342 4.12682 77.781 3.83031 77.6745 3.57035C77.5681 3.30227 77.4174 3.07887 77.2223 2.90015C77.0361 2.7133 76.8144 2.57114 76.5572 2.47365C76.3089 2.37617 76.0384 2.32743 75.7458 2.32743C75.4531 2.32743 75.1782 2.37617 74.9211 2.47365C74.6728 2.57114 74.4511 2.7133 74.256 2.90015C74.0698 3.07887 73.9234 3.30227 73.817 3.57035C73.7106 3.83031 73.6574 4.12682 73.6574 4.45989C73.6574 4.79296 73.7106 5.09353 73.817 5.36162C73.9234 5.62157 74.0698 5.84497 74.256 6.03182C74.4511 6.21054 74.6728 6.34864 74.9211 6.44613C75.1782 6.54361 75.4531 6.59235 75.7458 6.59235Z" fill="black" />
</svg>