<svg xmlns="http://www.w3.org/2000/svg" viewBox="0 0 24 24" fill="none" stroke="none" xmlns:c2pa="http://c2pa.org/manifest"><metadata><c2pa:manifest>AAAWgmp1bWIAAAAeanVtZGMycGEAEQAQgAAAqgA4m3EDYzJwYQAAABZcanVtYgAAAEdqdW1kYzJtYQARABCAAACqADibcQN1cm46YzJwYToxODczZjc1My0xNWVlLTRiNTktYmZjNC0wYjk5NTBiODIxM2EAAAADl2p1bWIAAAApanVtZGMyYXMAEQAQgAAAqgA4m3EDYzJwYS5hc3NlcnRpb25zAAAAALxqdW1iAAAARGp1bWRjYm9yABEAEIAAAKoAOJtxE2MycGEuaW5ncmVkaWVudC52MwAAAAAYYzJzaHUlD10bgEhqDyseOoWw2h0AAABwY2JvcqNpZGM6Zm9ybWF0bWltYWdlL3N2Zyt4bWxqaW5zdGFuY2VJRHgseG1wOmlpZDo4YTQ5Mjg5Yi1lZjI5LTQ4ZGQtYmNjMS0zMGU3MzA3OGZjNzZscmVsYXRpb25zaGlwaHBhcmVudE9mAAAB4mp1bWIAAABBanVtZGNib3IAEQAQgAAAqgA4m3ETYzJwYS5hY3Rpb25zLnYyAAAAABhjMnNomG4OSsoiyxSi9ly0AErKLAAAAZljYm9yomdhY3Rpb25zgqJmYWN0aW9ua2MycGEub3BlbmVkanBhcmFtZXRlcnOha2luZ3JlZGllbnRzgaJjdXJseC1zZWxmI2p1bWJmPWMycGEuYXNzZXJ0aW9ucy9jMnBhLmluZ3JlZGllbnQudjNkaGFzaFggd8+7inlU6pT5AF1GwnyaGgwrrv2IW9QnAH3DNWP03SikZmFjdGlvbngdY29tLmFudGhyb3BpYy5jbGF1ZGUucHJvdmlkZWRqcGFyYW1ldGVyc6F4H2NvbS5hbnRocm9waWMub3JpZ2luLWNvbmZpZGVuY2VndW5rbm93bmtkZXNjcmlwdGlvbnhmQ2xhdWRlIHByb3ZpZGVkIHRoaXMgZmlsZSBhdCB0aGUgcmVxdWVzdCBvZiBhIHVzZXIgYW5kIG1heSBoYXZlIGNyZWF0ZWQgb3IgbW9kaWZpZWQgdGhlIGZpbGUgY29udGVudHMubXNvZnR3YXJlQWdlbnShZG5hbWVmQ2xhdWRlcmFsbEFjdGlvbnNJbmNsdWRlZPUAAADIanVtYgAAAEBqdW1kY2JvcgARABCAAACqADibcRNjMnBhLmhhc2guZGF0YQAAAAAYYzJzaFH6GwntcHfJn2o/GaEYKIsAAACAY2JvcqVjYWxnZnNoYTI1NmNwYWRNAAAAAAAAAAAAAAAAAGRoYXNoWCBAZ7ElPZNIVFyICmtHw1Gg8YUpVyjMBkb9RuXG/ctLsGRuYW1lbmp1bWJmIG1hbmlmZXN0amV4Y2x1c2lvbnOBomVzdGFydBiVZmxlbmd0aBkeBAAAAj5qdW1iAAAAJ2p1bWRjMmNsABEAEIAAAKoAOJtxA2MycGEuY2xhaW0udjIAAAACD2Nib3KlY2FsZ2ZzaGEyNTZpc2lnbmF0dXJleE1zZWxmI2p1bWJmPS9jMnBhL3VybjpjMnBhOjE4NzNmNzUzLTE1ZWUtNGI1OS1iZmM0LTBiOTk1MGI4MjEzYS9jMnBhLnNpZ25hdHVyZWppbnN0YW5jZUlEeCx4bXA6aWlkOjMwN2NmZGRmLTNkNGYtNDQ2Ni04NzQ1LTJlYmZkNGI0OTkzMnJjcmVhdGVkX2Fzc2VydGlvbnODomN1cmx4LXNlbGYjanVtYmY9YzJwYS5hc3NlcnRpb25zL2MycGEuaW5ncmVkaWVudC52M2RoYXNoWCB3z7uKeVTqlPkAXUbCfJoaDCuu/Yhb1CcAfcM1Y/TdKKJjdXJseCpzZWxmI2p1bWJmPWMycGEuYXNzZXJ0aW9ucy9jMnBhLmFjdGlvbnMudjJkaGFzaFggHk3fTA3eqfrLDFFZkCRvB8wd9CAaoTs2CR7Ls2/rXn6iY3VybHgpc2VsZiNqdW1iZj1jMnBhLmFzc2VydGlvbnMvYzJwYS5oYXNoLmRhdGFkaGFzaFggipHotEB5E8lLnCNCITV9ex6NunUTK3RIjWCGSrIrdhB0Y2xhaW1fZ2VuZXJhdG9yX2luZm+jZG5hbWVvQW50aHJvcGljIEZpbGVzZ3ZlcnNpb25lMS4wLjBrc3BlY1ZlcnNpb25lMi40LjAAABA4anVtYgAAAChqdW1kYzJjcwARABCAAACqADibcQNjMnBhLnNpZ25hdHVyZQAAABAIY2JvctKEWQISogEmGCFZAgowggIGMIIBjaADAgECAhRA5aAK7sI50L64g/oGQgU9Z1UTADAKBggqhkjOPQQDAzBJMRcwFQYDVQQKEw5BbnRocm9waWMsIFBCQzEuMCwGA1UEAxMlQW50aHJvcGljIENvbnRlbnQgQ3JlZGVudGlhbHMgUm9vdCBDQTAeFw0yNjA4MDcxODQzNTZaFw0yODA4MDYxOTQzNTZaMEQxFzAVBgNVBAoTDkFudGhyb3BpYywgUEJDMSkwJwYDVQQDEyBBbnRocm9waWMgQ2xhdWRlIENvbnRlbnQgU2lnbmluZzBZMBMGByqGSM49AgEGCCqGSM49AwEHA0IABJh6CmvLUBgFFNU0vUKlOVtE6djd17L5SuwX0LemFisBM3dkd/3cyjxFA3Qo5S46fX0/ihY0VZ7mfb9KF703t5OjWDBWMA4GA1UdDwEB/wQEAwIHgDAVBgNVHSUEDjAMBgorBgEEAYPoXgIBMAwGA1UdEwEB/wQCMAAwHwYDVR0jBBgwFoAUzlHiBIFOZFsj+OPEz5o+nMHXXMIwCgYIKoZIzj0EAwMDZwAwZAIwMXMdFJ4BetLLVY7ORuE9noqbbAZOZn/aArXyTwFAZfKrPzxF2vPoJNf1+UCdg1XGAjBwX1zd9WGqYkqmL5SFqw1QySjr1zJfpJM9+1rdDwSPLMOPOjKuiXjoU/pUUeG9RwmhY3BhZFkNngAAAAAAAAAAAAAAAAAAAAAAAAAAAAAAAAAAAAAAAAAAAAAAAAAAAAAAAAAAAAAAAAAAAAAAAAAAAAAAAAAAAAAAAAAAAAAAAAAAAAAAAAAAAAAAAAAAAAAAAAAAAAAAAAAAAAAAAAAAAAAAAAAAAAAAAAAAAAAAAAAAAAAAAAAAAAAAAAAAAAAAAAAAAAAAAAAAAAAAAAAAAAAAAAAAAAAAAAAAAAAAAAAAAAAAAAAAAAAAAAAAAAAAAAAAAAAAAAAAAAAAAAAAAAAAAAAAAAAAAAAAAAAAAAAAAAAAAAAAAAAAAAAAAAAAAAAAAAAAAAAAAAAAAAAAAAAAAAAAAAAAAAAAAAAAAAAAAAAAAAAAAAAAAAAAAAAAAAAAAAAAAAAAAAAAAAAAAAAAAAAAAAAAAAAAAAAAAAAAAAAAAAAAAAAAAAAAAAAAAAAAAAAAAAAAAAAAAAAAAAAAAAAAAAAAAAAAAAAAAAAAAAAAAAAAAAAAAAAAAAAAAAAAAAAAAAAAAAAAAAAAAAAAAAAAAAAAAAAAAAAAAAAAAAAAAAAAAAAAAAAAAAAAAAAAAAAAAAAAAAAAAAAAAAAAAAAAAAAAAAAAAAAAAAAAAAAAAAAAAAAAAAAAAAAAAAAAAAAAAAAAAAAAAAAAAAAAAAAAAAAAAAAAAAAAAAAAAAAAAAAAAAAAAAAAAAAAAAAAAAAAAAAAAAAAAAAAAAAAAAAAAAAAAAAAAAAAAAAAAAAAAAAAAAAAAAAAAAAAAAAAAAAAAAAAAAAAAAAAAAAAAAAAAAAAAAAAAAAAAAAAAAAAAAAAAAAAAAAAAAAAAAAAAAAAAAAAAAAAAAAAAAAAAAAAAAAAAAAAAAAAAAAAAAAAAAAAAAAAAAAAAAAAAAAAAAAAAAAAAAAAAAAAAAAAAAAAAAAAAAAAAAAAAAAAAAAAAAAAAAAAAAAAAAAAAAAAAAAAAAAAAAAAAAAAAAAAAAAAAAAAAAAAAAAAAAAAAAAAAAAAAAAAAAAAAAAAAAAAAAAAAAAAAAAAAAAAAAAAAAAAAAAAAAAAAAAAAAAAAAAAAAAAAAAAAAAAAAAAAAAAAAAAAAAAAAAAAAAAAAAAAAAAAAAAAAAAAAAAAAAAAAAAAAAAAAAAAAAAAAAAAAAAAAAAAAAAAAAAAAAAAAAAAAAAAAAAAAAAAAAAAAAAAAAAAAAAAAAAAAAAAAAAAAAAAAAAAAAAAAAAAAAAAAAAAAAAAAAAAAAAAAAAAAAAAAAAAAAAAAAAAAAAAAAAAAAAAAAAAAAAAAAAAAAAAAAAAAAAAAAAAAAAAAAAAAAAAAAAAAAAAAAAAAAAAAAAAAAAAAAAAAAAAAAAAAAAAAAAAAAAAAAAAAAAAAAAAAAAAAAAAAAAAAAAAAAAAAAAAAAAAAAAAAAAAAAAAAAAAAAAAAAAAAAAAAAAAAAAAAAAAAAAAAAAAAAAAAAAAAAAAAAAAAAAAAAAAAAAAAAAAAAAAAAAAAAAAAAAAAAAAAAAAAAAAAAAAAAAAAAAAAAAAAAAAAAAAAAAAAAAAAAAAAAAAAAAAAAAAAAAAAAAAAAAAAAAAAAAAAAAAAAAAAAAAAAAAAAAAAAAAAAAAAAAAAAAAAAAAAAAAAAAAAAAAAAAAAAAAAAAAAAAAAAAAAAAAAAAAAAAAAAAAAAAAAAAAAAAAAAAAAAAAAAAAAAAAAAAAAAAAAAAAAAAAAAAAAAAAAAAAAAAAAAAAAAAAAAAAAAAAAAAAAAAAAAAAAAAAAAAAAAAAAAAAAAAAAAAAAAAAAAAAAAAAAAAAAAAAAAAAAAAAAAAAAAAAAAAAAAAAAAAAAAAAAAAAAAAAAAAAAAAAAAAAAAAAAAAAAAAAAAAAAAAAAAAAAAAAAAAAAAAAAAAAAAAAAAAAAAAAAAAAAAAAAAAAAAAAAAAAAAAAAAAAAAAAAAAAAAAAAAAAAAAAAAAAAAAAAAAAAAAAAAAAAAAAAAAAAAAAAAAAAAAAAAAAAAAAAAAAAAAAAAAAAAAAAAAAAAAAAAAAAAAAAAAAAAAAAAAAAAAAAAAAAAAAAAAAAAAAAAAAAAAAAAAAAAAAAAAAAAAAAAAAAAAAAAAAAAAAAAAAAAAAAAAAAAAAAAAAAAAAAAAAAAAAAAAAAAAAAAAAAAAAAAAAAAAAAAAAAAAAAAAAAAAAAAAAAAAAAAAAAAAAAAAAAAAAAAAAAAAAAAAAAAAAAAAAAAAAAAAAAAAAAAAAAAAAAAAAAAAAAAAAAAAAAAAAAAAAAAAAAAAAAAAAAAAAAAAAAAAAAAAAAAAAAAAAAAAAAAAAAAAAAAAAAAAAAAAAAAAAAAAAAAAAAAAAAAAAAAAAAAAAAAAAAAAAAAAAAAAAAAAAAAAAAAAAAAAAAAAAAAAAAAAAAAAAAAAAAAAAAAAAAAAAAAAAAAAAAAAAAAAAAAAAAAAAAAAAAAAAAAAAAAAAAAAAAAAAAAAAAAAAAAAAAAAAAAAAAAAAAAAAAAAAAAAAAAAAAAAAAAAAAAAAAAAAAAAAAAAAAAAAAAAAAAAAAAAAAAAAAAAAAAAAAAAAAAAAAAAAAAAAAAAAAAAAAAAAAAAAAAAAAAAAAAAAAAAAAAAAAAAAAAAAAAAAAAAAAAAAAAAAAAAAAAAAAAAAAAAAAAAAAAAAAAAAAAAAAAAAAAAAAAAAAAAAAAAAAAAAAAAAAAAAAAAAAAAAAAAAAAAAAAAAAAAAAAAAAAAAAAAAAAAAAAAAAAAAAAAAAAAAAAAAAAAAAAAAAAAAAAAAAAAAAAAAAAAAAAAAAAAAAAAAAAAAAAAAAAAAAAAAAAAAAAAAAAAAAAAAAAAAAAAAAAAAAAAAAAAAAAAAAAAAAAAAAAAAAAAAAAAAAAAAAAAAAAAAAAAAAAAAAAAAAAAAAAAAAAAAAAAAAAAAAAAAAAAAAAAAAAAAAAAAAAAAAAAAAAAAAAAAAAAAAAAAAAAAAAAAAAAAAAAAAAAAAAAAAAAAAAAAAAAAAAAAAAAAAAAAAAAAAAAAAAAAAAAAAAAAAAAAAAAAAAAAAAAAAAAAAAAAAAAAAAAAAAAAAAAAAAAAAAAAAAAAAAAAAAAAAAAAAAAAAAAAAAAAAAAAAAAAAAAAAAAAAAAAAAAAAAAAAAAAAAAAAAAAAAAAAAAAAAAAAAAAAAAAAAAAAAAAAAAAAAAAAAAAAAAAAAAAAAAAAAAAAAAAAAAAAAAAAAAAAAAAAAAAAAAAAAAAAAAAAAAAAAAAAAAAAAAAAAAAAAAAAAAAAAAAAAAAAAAAAAAAAAAAAAAAAAAAAAAAAAAAAAAAAAAAAAAAAAAAAAAAAAAAAAAAAAAAAAAAAAAAAAAAAAAAAAAAAAAAAAAAAAAAAAAAAAAAAAAAAAAAAAAAAAAAAAAAAAAAAAAAAAAAAAAAAAAAAAAAAAAAAAAAAAAAAAAAAAAAAAAAAAAAAAAAAAAAAAAAAAAAAAAAAAAAAAAAAAAAAAAAAAAAAAAAAAAAAAAAAAAAAAAAAAAAAAAAAAAAAAAAAAAAAAAAAAAAAAAAAAAAAAAAAAAAAAAAAAAAAAAAAAAAAAAAAAAAAAAAAAAAAAAAAAAAAAAAAAAAAAAAAAAAAAAAAAAAAAAAAAAAAAAAAAAAAAAAAAAAAAAAAAAAAAAAAAAAAAAAAAAAAAAAAAAAAAAAAAAAAAAAAAAAAAAAAAAAAAAAAAAAAAAAAAAAAAAAAAAAAAAAAAAAAAAAAAAAAAAAAAAAAAAAAAAAAAAAAAAAAAAAAAAAAAAAAAAAAAAAAAAAAAAAAAAAAAAAAAAAAAAAAAAAAAAAAAAAAAAAAAAAAAAAAAAAAAAAAAAAAAAAAAAAAAAAAAAAAAAAAAAAAAAAAAAAAAAAAAAAAAAAAAAAAAAAAAAAAAAAAAAAAAAAAAAAAAAAAAAAAAAAAAAAAAAAAAAAAAAAAAAAAAAAAAAAAAAAAAAAAAAAAAAAAAAAAAAAAAAAAAAAAAAAAAAAAAAAAAAAAAAAAAAAAAAAAAAAAAAAAAAAAAAAAAAAAAAAAAAAAAAAAAAAAAAAAAAAAAAAAAAAAAAAAAAAAAAAAAAAAAAAAAAAAAAAAAAAAAAAAAAAAAAAAAAAAAAAAAAAAAAAAAAAAAAAAAAAAAAAAAAAAAAAAAAAAAAAAAAAAAAAAAAAAAAAAAAAAAAAAAAAAAAAAAAAAAAAAAAAAAAAAAAAAAAAAAAAAAAAAAAAAAAAAAAAAAAAAAAAAAAAAAAAAAAAAAAAAAAAAAAAAAAAAAAAAAAAAAAAAAAAAAAAAAAAAAAAAAAAAAAAAAAAAAAAAAAAAAAAAAAAAAAAAAAAAAAAAAAAAAAAAAAAAAAAAAAAAAAAAAAAAAAAAAAAAAAAAAAAAAAAAAAAAAAAAAAAAAAAAAAAAAAAAAAAAAAAAAAAAAAAAAAAAAAAAAAAAAAAAAAAAAAAAAAAAAAAAAAAAAAAAAAAAAAAAAAAAAAAAAAAAAAAAAAAAAAAAAAAAAAAAAAAAAAAAAAAAAAAAAAAAAAAAAAAAAAAAAAAAAAAAAAAAAAAAAAAAAAAAAAAAAAAAAAAAAAAAAAAAAAAAAAAAAAAAAAAAAAAAAAAAAAAAAAAAAAAAAAAAAAAAAAAAAAAAAAAAAAAAAAAAAAAAAAAPZYQOoW/3EiFdLBi/WNEWBodN7genW0ww3QYrAWrHlhxdDIQCZ3+EfNNBhN0NH/eFVBj7DQAS/kDyW/FuR4IsWCgTk=</c2pa:manifest></metadata><path d="M 1.225 0 C 1.225 -0.414 0.889 -0.75 0.475 -0.75 C 0.061 -0.75 -0.275 -0.414 -0.275 0 L 0.475 0 L 1.225 0 Z M -0.275 2.655 C -0.275 3.069 0.061 3.405 0.475 3.405 C 0.889 3.405 1.225 3.069 1.225 2.655 L 0.475 2.655 L -0.275 2.655 Z M 0.475 0 L -0.275 0 L -0.275 2.655 L 0.475 2.655 L 1.225 2.655 L 1.225 0 L 0.475 0 Z" fill="currentColor" fill-rule="nonzero" transform="matrix(1 0 0 1 2.500 3.500) matrix(1 0 0 1 10.384 0.100)"></path><path d="M 1.225 0 C 1.225 -0.414 0.889 -0.75 0.475 -0.75 C 0.061 -0.75 -0.275 -0.414 -0.275 0 L 0.475 0 L 1.225 0 Z M -0.275 2.22 C -0.275 2.634 0.061 2.97 0.475 2.97 C 0.889 2.97 1.225 2.634 1.225 2.22 L 0.475 2.22 L -0.275 2.22 Z M 0.475 0 L -0.275 0 L -0.275 2.22 L 0.475 2.22 L 1.225 2.22 L 1.225 0 L 0.475 0 Z" fill="currentColor" fill-rule="nonzero" transform="matrix(1 0 0 1 2.500 3.500) matrix(1 0 0 1 10.384 14.044)"></path><path d="M -0.275 5.289 C -0.275 5.703 0.061 6.039 0.475 6.039 C 0.889 6.039 1.225 5.703 1.225 5.289 L 0.475 5.289 L -0.275 5.289 Z M 1.225 0 C 1.225 -0.414 0.889 -0.75 0.475 -0.75 C 0.061 -0.75 -0.275 -0.414 -0.275 0 L 0.475 0 L 1.225 0 Z M 0.475 5.289 L 1.225 5.289 L 1.225 0 L 0.475 0 L -0.275 0 L -0.275 5.289 L 0.475 5.289 Z" fill="currentColor" fill-rule="nonzero" transform="matrix(1 0 0 1 2.500 3.500) matrix(1 0 0 1 10.384 5.755)"></path><path d="M 19 10.55 L 19.75 10.55 C 19.75 10.136 19.414 9.8 19 9.8 L 19 10.55 Z M 19 6.449 L 19 7.199 C 19.414 7.199 19.75 6.863 19.75 6.449 L 19 6.449 Z M 0 6.449 L -0.75 6.449 C -0.75 6.863 -0.414 7.199 0 7.199 L 0 6.449 Z M 0 10.55 L 0 9.8 C -0.414 9.8 -0.75 10.136 -0.75 10.55 L 0 10.55 Z M 19 10.55 L 19 9.8 C 18.535 9.8 18.239 9.631 18.051 9.416 C 17.85 9.186 17.732 8.856 17.732 8.5 C 17.732 8.143 17.85 7.813 18.051 7.583 C 18.239 7.368 18.535 7.199 19 7.199 L 19 6.449 L 19 5.699 C 18.12 5.699 17.406 6.042 16.922 6.596 C 16.45 7.135 16.232 7.83 16.232 8.5 C 16.232 9.169 16.45 9.864 16.922 10.403 C 17.406 10.957 18.12 11.3 19 11.3 L 19 10.55 Z M 19 6.449 L 19.75 6.449 C 19.75 5.283 19.753 4.211 19.59 3.304 C 19.422 2.366 19.065 1.528 18.301 0.873 C 17.559 0.237 16.515 -0.156 15.121 -0.4 C 13.721 -0.644 11.889 -0.75 9.5 -0.75 L 9.5 0 L 9.5 0.75 C 11.861 0.75 13.591 0.856 14.863 1.078 C 16.141 1.301 16.878 1.629 17.324 2.012 C 17.747 2.374 17.985 2.852 18.113 3.569 C 18.247 4.316 18.25 5.238 18.25 6.449 L 19 6.449 Z M 9.5 0 L 9.5 -0.75 C 7.111 -0.75 5.279 -0.644 3.879 -0.4 C 2.485 -0.156 1.441 0.237 0.699 0.873 C -0.065 1.528 -0.422 2.366 -0.59 3.304 C -0.753 4.211 -0.75 5.283 -0.75 6.449 L 0 6.449 L 0.75 6.449 C 0.75 5.238 0.753 4.316 0.887 3.569 C 1.015 2.852 1.253 2.374 1.676 2.012 C 2.122 1.629 2.859 1.301 4.137 1.078 C 5.409 0.856 7.139 0.75 9.5 0.75 L 9.5 0 Z M 0 6.449 L 0 7.199 C 0.465 7.199 0.761 7.368 0.949 7.583 C 1.15 7.813 1.268 8.143 1.268 8.5 C 1.268 8.856 1.15 9.186 0.949 9.416 C 0.761 9.631 0.465 9.8 0 9.8 L 0 10.55 L 0 11.3 C 0.88 11.3 1.594 10.957 2.078 10.403 C 2.55 9.864 2.768 9.169 2.768 8.5 C 2.768 7.83 2.55 7.135 2.078 6.596 C 1.594 6.042 0.88 5.699 0 5.699 L 0 6.449 Z M 0 10.55 L -0.75 10.55 C -0.75 11.716 -0.753 12.788 -0.59 13.696 C -0.422 14.634 -0.065 15.472 0.699 16.127 C 1.441 16.763 2.485 17.156 3.879 17.4 C 5.279 17.644 7.111 17.75 9.5 17.75 L 9.5 17 L 9.5 16.25 C 7.139 16.25 5.409 16.144 4.137 15.922 C 2.859 15.699 2.122 15.371 1.676 14.988 C 1.253 14.626 1.015 14.148 0.887 13.431 C 0.753 12.684 0.75 11.761 0.75 10.55 L 0 10.55 Z M 9.5 17 L 9.5 17.75 C 11.889 17.75 13.721 17.644 15.121 17.4 C 16.515 17.156 17.559 16.763 18.301 16.127 C 19.065 15.472 19.422 14.634 19.59 13.696 C 19.753 12.788 19.75 11.716 19.75 10.55 L 19 10.55 L 18.25 10.55 C 18.25 11.761 18.247 12.684 18.113 13.431 C 17.985 14.148 17.747 14.626 17.324 14.988 C 16.878 15.371 16.141 15.699 14.863 15.922 C 13.591 16.144 11.861 16.25 9.5 16.25 L 9.5 17 Z" fill="currentColor" fill-rule="nonzero" transform="matrix(1 0 0 1 2.500 3.500)"></path></svg>