<svg width="77" height="18" viewBox="0 0 77 18" fill="none" xmlns="http://www.w3.org/2000/svg">
  <path d="M8.62384 18C5.9094 18 3.79348 17.2932 2.27609 15.8797C0.758696 14.4662 0 12.484 0 9.93321V0.550377H5.96841V9.76261C5.96841 11.0624 6.21288 11.9885 6.70181 12.5409C7.19075 13.0771 7.84829 13.3451 8.67442 13.3451C9.51742 13.3451 10.175 13.0771 10.647 12.5409C11.136 11.9885 11.3804 11.0624 11.3804 9.76261V0.550377H17.2477V9.93321C17.2477 12.484 16.489 14.4662 14.9716 15.8797C13.4542 17.2932 11.3383 18 8.62384 18Z" fill="white" />
  <path d="M19.9835 17.6101V0.550377H24.8898L33.893 10.9324H31.6169V0.550377H37.4335V17.6101H32.5273L23.5241 7.22803H25.8002V17.6101H19.9835Z" fill="white" />
  <path d="M40.3093 17.6101V0.550377H46.2777V17.6101H40.3093Z" fill="white" />
  <path d="M58.3058 18C56.8895 18 55.5745 17.7888 54.3606 17.3664C53.1635 16.9277 52.1182 16.3103 51.2246 15.5142C50.3479 14.718 49.6651 13.7757 49.1761 12.6871C48.6872 11.5986 48.4427 10.3963 48.4427 9.08022C48.4427 7.76419 48.6872 6.56189 49.1761 5.47332C49.6651 4.38475 50.3479 3.4424 51.2246 2.64628C52.1182 1.85016 53.1635 1.24089 54.3606 0.818459C55.5745 0.379781 56.8895 0.160442 58.3058 0.160442C60.0424 0.160442 61.5766 0.452894 62.9085 1.0378C64.2573 1.6227 65.3701 2.46756 66.2468 3.57238L62.4786 6.81372C61.956 6.18008 61.3743 5.69265 60.7336 5.35146C60.1098 4.99402 59.4017 4.8153 58.6093 4.8153C57.9854 4.8153 57.4206 4.91278 56.9148 5.10775C56.409 5.30272 55.9707 5.58705 55.5998 5.96074C55.2457 6.33442 54.9675 6.78935 54.7652 7.32551C54.5629 7.84543 54.4617 8.43033 54.4617 9.08022C54.4617 9.73011 54.5629 10.3231 54.7652 10.8593C54.9675 11.3792 55.2457 11.826 55.5998 12.1997C55.9707 12.5734 56.409 12.8577 56.9148 13.0527C57.4206 13.2477 57.9854 13.3451 58.6093 13.3451C59.4017 13.3451 60.1098 13.1745 60.7336 12.8334C61.3743 12.4759 61.956 11.9804 62.4786 11.3467L66.2468 14.5881C65.3701 15.6766 64.2573 16.5215 62.9085 17.1226C61.5766 17.7075 60.0424 18 58.3058 18Z" fill="white" />
  <path d="M72.0052 8.91978C71.2887 8.91978 70.6227 8.81011 70.0074 8.59077C69.4004 8.37143 68.8735 8.06273 68.4267 7.66467C67.9799 7.25849 67.6301 6.78326 67.3772 6.23897C67.1327 5.69469 67.0105 5.10166 67.0105 4.45989C67.0105 3.81 67.1327 3.21697 67.3772 2.68081C67.6301 2.13652 67.9799 1.66535 68.4267 1.26729C68.8735 0.861108 69.4004 0.548347 70.0074 0.329008C70.6227 0.109669 71.2887 0 72.0052 0C72.7302 0 73.3962 0.109669 74.0032 0.329008C74.6101 0.548347 75.137 0.861108 75.5838 1.26729C76.0306 1.66535 76.3762 2.13652 76.6207 2.68081C76.8736 3.21697 77 3.81 77 4.45989C77 5.10166 76.8736 5.69469 76.6207 6.23897C76.3762 6.78326 76.0306 7.25849 75.5838 7.66467C75.137 8.06273 74.6101 8.37143 74.0032 8.59077C73.3962 8.81011 72.7302 8.91978 72.0052 8.91978ZM72.0052 6.59235C72.2834 6.59235 72.5406 6.54361 72.7766 6.44613C73.0211 6.34864 73.2318 6.21054 73.4088 6.03182C73.5943 5.84497 73.7376 5.62157 73.8388 5.36162C73.9399 5.09353 73.9905 4.79296 73.9905 4.45989C73.9905 4.12682 73.9399 3.83031 73.8388 3.57035C73.7376 3.30227 73.5943 3.07887 73.4088 2.90015C73.2318 2.7133 73.0211 2.57114 72.7766 2.47365C72.5406 2.37617 72.2834 2.32743 72.0052 2.32743C71.7271 2.32743 71.4657 2.37617 71.2213 2.47365C70.9852 2.57114 70.7745 2.7133 70.589 2.90015C70.412 3.07887 70.2729 3.30227 70.1717 3.57035C70.0706 3.83031 70.02 4.12682 70.02 4.45989C70.02 4.79296 70.0706 5.09353 70.1717 5.36162C70.2729 5.62157 70.412 5.84497 70.589 6.03182C70.7745 6.21054 70.9852 6.34864 71.2213 6.44613C71.4657 6.54361 71.7271 6.59235 72.0052 6.59235Z" fill="white" />
</svg>